<svg width="16" height="17" viewBox="0 0 16 17" fill="none" xmlns="http://www.w3.org/2000/svg">
<path d="M6.10573 7.74683C6.03906 7.74016 5.95906 7.74016 5.88573 7.74683C4.29906 7.6935 3.03906 6.3935 3.03906 4.7935C3.03906 3.16016 4.35906 1.8335 5.99906 1.8335C7.6324 1.8335 8.95906 3.16016 8.95906 4.7935C8.9524 6.3935 7.6924 7.6935 6.10573 7.74683Z" stroke="#54577A" stroke-width="1.5" stroke-linecap="round" stroke-linejoin="round"/>
<path d="M10.9402 3.1665C12.2335 3.1665 13.2735 4.21317 13.2735 5.49984C13.2735 6.75984 12.2735 7.7865 11.0268 7.83317C10.9735 7.8265 10.9135 7.8265 10.8535 7.83317" stroke="#54577A" stroke-width="1.5" stroke-linecap="round" stroke-linejoin="round"/>
<path d="M2.7725 10.2065C1.15917 11.2865 1.15917 13.0465 2.7725 14.1198C4.60583 15.3465 7.6125 15.3465 9.44583 14.1198C11.0592 13.0398 11.0592 11.2798 9.44583 10.2065C7.61917 8.9865 4.6125 8.9865 2.7725 10.2065Z" stroke="#54577A" stroke-width="1.5" stroke-linecap="round" stroke-linejoin="round"/>
<path d="M12.2266 13.8335C12.7066 13.7335 13.1599 13.5402 13.5332 13.2535C14.5732 12.4735 14.5732 11.1868 13.5332 10.4068C13.1666 10.1268 12.7199 9.94016 12.2466 9.8335" stroke="#54577A" stroke-width="1.5" stroke-linecap="round" stroke-linejoin="round"/>
</svg>
