<svg width="672" height="44" viewBox="0 0 672 44" fill="none" xmlns="http://www.w3.org/2000/svg">
<rect width="672" height="44" rx="10" fill="white"/>
<path d="M32.875 27.925V16.075C32.875 14.95 32.4 14.5 31.2 14.5H28.175C26.975 14.5 26.5 14.95 26.5 16.075V27.925C26.5 29.05 26.975 29.5 28.175 29.5H31.2C32.4 29.5 32.875 29.05 32.875 27.925Z" fill="#141522"/>
<path d="M41.5 27.925V16.075C41.5 14.95 41.025 14.5 39.825 14.5H36.8C35.6083 14.5 35.125 14.95 35.125 16.075V27.925C35.125 29.05 35.6 29.5 36.8 29.5H39.825C41.025 29.5 41.5 29.05 41.5 27.925Z" fill="#141522"/>
<path d="M629.666 20.3333V23.6667C629.666 25.3333 630.499 26.1667 632.166 26.1667H633.358C633.666 26.1667 633.974 26.2583 634.241 26.4167L636.674 27.9417C638.774 29.2583 640.499 28.3 640.499 25.825V18.175C640.499 15.6917 638.774 14.7417 636.674 16.0583L634.241 17.5833C633.974 17.7417 633.666 17.8333 633.358 17.8333H632.166C630.499 17.8333 629.666 18.6667 629.666 20.3333Z" stroke="#54577A" stroke-width="1.5"/>
<path d="M643 18.6665C644.483 20.6415 644.483 23.3582 643 25.3332" stroke="#54577A" stroke-width="1.5" stroke-linecap="round" stroke-linejoin="round"/>
<path d="M644.525 16.5835C646.934 19.7918 646.934 24.2085 644.525 27.4168" stroke="#54577A" stroke-width="1.5" stroke-linecap="round" stroke-linejoin="round"/>
<path d="M603.499 30.3332H608.499C612.666 30.3332 614.333 28.6665 614.333 24.4998V19.4998C614.333 15.3332 612.666 13.6665 608.499 13.6665H603.499C599.333 13.6665 597.666 15.3332 597.666 19.4998V24.4998C597.666 28.6665 599.333 30.3332 603.499 30.3332Z" stroke="#54577A" stroke-width="1.5" stroke-linecap="round" stroke-linejoin="round"/>
<path d="M606.5 27.4165H609.667C610.917 27.4165 611.417 26.9165 611.417 25.6665V24.1665C611.417 22.9165 610.917 22.4165 609.667 22.4165H606.5C605.25 22.4165 604.75 22.9165 604.75 24.1665V25.6665C604.75 26.9165 605.25 27.4165 606.5 27.4165Z" stroke="#54577A" stroke-width="1.5" stroke-linecap="round" stroke-linejoin="round"/>
<path d="M571.499 30.3332H576.499C580.666 30.3332 582.333 28.6665 582.333 24.4998V19.4998C582.333 15.3332 580.666 13.6665 576.499 13.6665H571.499C567.333 13.6665 565.666 15.3332 565.666 19.4998V24.4998C565.666 28.6665 567.333 30.3332 571.499 30.3332Z" stroke="#54577A" stroke-width="1.5" stroke-linecap="round" stroke-linejoin="round"/>
<path d="M579 17L569 27" stroke="#54577A" stroke-width="1.5" stroke-linecap="round" stroke-linejoin="round"/>
<path d="M578.999 20.3333V17H575.666" stroke="#54577A" stroke-width="1.5" stroke-linecap="round" stroke-linejoin="round"/>
<path d="M569 23.6665V26.9998H572.333" stroke="#54577A" stroke-width="1.5" stroke-linecap="round" stroke-linejoin="round"/>
<path d="M446.812 28V27.048L449.696 23.926C450.265 23.3193 450.718 22.82 451.054 22.428C451.399 22.036 451.651 21.686 451.81 21.378C451.968 21.07 452.048 20.7433 452.048 20.398C452.048 19.8287 451.88 19.39 451.544 19.082C451.208 18.774 450.764 18.62 450.214 18.62C449.654 18.62 449.178 18.7833 448.786 19.11C448.394 19.4273 448.123 19.88 447.974 20.468L446.728 20.146C446.849 19.586 447.073 19.1007 447.4 18.69C447.726 18.2793 448.132 17.962 448.618 17.738C449.103 17.514 449.635 17.402 450.214 17.402C450.848 17.402 451.404 17.528 451.88 17.78C452.365 18.0227 452.743 18.3633 453.014 18.802C453.294 19.2407 453.434 19.7493 453.434 20.328C453.434 20.7107 453.354 21.084 453.196 21.448C453.037 21.812 452.804 22.1993 452.496 22.61C452.188 23.0113 451.786 23.478 451.292 24.01L448.716 26.81H453.658V28H446.812ZM455.977 28V26.32H457.335V28H455.977ZM455.977 22.134V20.454H457.335V22.134H455.977ZM459.636 28V27.048L462.52 23.926C463.089 23.3193 463.542 22.82 463.878 22.428C464.223 22.036 464.475 21.686 464.634 21.378C464.793 21.07 464.872 20.7433 464.872 20.398C464.872 19.8287 464.704 19.39 464.368 19.082C464.032 18.774 463.589 18.62 463.038 18.62C462.478 18.62 462.002 18.7833 461.61 19.11C461.218 19.4273 460.947 19.88 460.798 20.468L459.552 20.146C459.673 19.586 459.897 19.1007 460.224 18.69C460.551 18.2793 460.957 17.962 461.442 17.738C461.927 17.514 462.459 17.402 463.038 17.402C463.673 17.402 464.228 17.528 464.704 17.78C465.189 18.0227 465.567 18.3633 465.838 18.802C466.118 19.2407 466.258 19.7493 466.258 20.328C466.258 20.7107 466.179 21.084 466.02 21.448C465.861 21.812 465.628 22.1993 465.32 22.61C465.012 23.0113 464.611 23.478 464.116 24.01L461.54 26.81H466.482V28H459.636ZM472.343 28.168C471.512 28.168 470.784 27.944 470.159 27.496C469.543 27.0387 469.062 26.4087 468.717 25.606C468.371 24.794 468.199 23.8513 468.199 22.778C468.199 21.7047 468.371 20.7667 468.717 19.964C469.062 19.152 469.543 18.522 470.159 18.074C470.775 17.626 471.498 17.402 472.329 17.402C473.159 17.402 473.883 17.626 474.499 18.074C475.115 18.522 475.595 19.152 475.941 19.964C476.295 20.7667 476.473 21.7047 476.473 22.778C476.473 23.8513 476.3 24.794 475.955 25.606C475.609 26.418 475.124 27.048 474.499 27.496C473.883 27.944 473.164 28.168 472.343 28.168ZM472.343 26.894C472.903 26.894 473.388 26.726 473.799 26.39C474.209 26.0447 474.527 25.564 474.751 24.948C474.984 24.332 475.101 23.6087 475.101 22.778C475.101 21.9473 474.984 21.224 474.751 20.608C474.527 19.992 474.205 19.516 473.785 19.18C473.374 18.844 472.889 18.676 472.329 18.676C471.769 18.676 471.283 18.844 470.873 19.18C470.462 19.516 470.14 19.992 469.907 20.608C469.683 21.224 469.571 21.9473 469.571 22.778C469.571 23.5993 469.683 24.318 469.907 24.934C470.14 25.55 470.462 26.0307 470.873 26.376C471.293 26.7213 471.783 26.894 472.343 26.894ZM477.49 29.68L482.194 18.144H483.664L478.96 29.68H477.49ZM486.255 28V18.76H484.281V17.57H487.641V28H486.255ZM494.19 28.168C493.36 28.168 492.632 27.944 492.006 27.496C491.39 27.0387 490.91 26.4087 490.564 25.606C490.219 24.794 490.046 23.8513 490.046 22.778C490.046 21.7047 490.219 20.7667 490.564 19.964C490.91 19.152 491.39 18.522 492.006 18.074C492.622 17.626 493.346 17.402 494.176 17.402C495.007 17.402 495.73 17.626 496.346 18.074C496.962 18.522 497.443 19.152 497.788 19.964C498.143 20.7667 498.32 21.7047 498.32 22.778C498.32 23.8513 498.148 24.794 497.802 25.606C497.457 26.418 496.972 27.048 496.346 27.496C495.73 27.944 495.012 28.168 494.19 28.168ZM494.19 26.894C494.75 26.894 495.236 26.726 495.646 26.39C496.057 26.0447 496.374 25.564 496.598 24.948C496.832 24.332 496.948 23.6087 496.948 22.778C496.948 21.9473 496.832 21.224 496.598 20.608C496.374 19.992 496.052 19.516 495.632 19.18C495.222 18.844 494.736 18.676 494.176 18.676C493.616 18.676 493.131 18.844 492.72 19.18C492.31 19.516 491.988 19.992 491.754 20.608C491.53 21.224 491.418 21.9473 491.418 22.778C491.418 23.5993 491.53 24.318 491.754 24.934C491.988 25.55 492.31 26.0307 492.72 26.376C493.14 26.7213 493.63 26.894 494.19 26.894ZM500.779 28V26.32H502.137V28H500.779ZM500.779 22.134V20.454H502.137V22.134H500.779ZM508.765 28.168C507.934 28.168 507.206 27.944 506.581 27.496C505.965 27.0387 505.484 26.4087 505.139 25.606C504.793 24.794 504.621 23.8513 504.621 22.778C504.621 21.7047 504.793 20.7667 505.139 19.964C505.484 19.152 505.965 18.522 506.581 18.074C507.197 17.626 507.92 17.402 508.751 17.402C509.581 17.402 510.305 17.626 510.921 18.074C511.537 18.522 512.017 19.152 512.363 19.964C512.717 20.7667 512.895 21.7047 512.895 22.778C512.895 23.8513 512.722 24.794 512.377 25.606C512.031 26.418 511.546 27.048 510.921 27.496C510.305 27.944 509.586 28.168 508.765 28.168ZM508.765 26.894C509.325 26.894 509.81 26.726 510.221 26.39C510.631 26.0447 510.949 25.564 511.173 24.948C511.406 24.332 511.523 23.6087 511.523 22.778C511.523 21.9473 511.406 21.224 511.173 20.608C510.949 19.992 510.627 19.516 510.207 19.18C509.796 18.844 509.311 18.676 508.751 18.676C508.191 18.676 507.705 18.844 507.295 19.18C506.884 19.516 506.562 19.992 506.329 20.608C506.105 21.224 505.993 21.9473 505.993 22.778C505.993 23.5993 506.105 24.318 506.329 24.934C506.562 25.55 506.884 26.0307 507.295 26.376C507.715 26.7213 508.205 26.894 508.765 26.894ZM518.895 28.168C518.065 28.168 517.337 27.944 516.711 27.496C516.095 27.0387 515.615 26.4087 515.269 25.606C514.924 24.794 514.751 23.8513 514.751 22.778C514.751 21.7047 514.924 20.7667 515.269 19.964C515.615 19.152 516.095 18.522 516.711 18.074C517.327 17.626 518.051 17.402 518.881 17.402C519.712 17.402 520.435 17.626 521.051 18.074C521.667 18.522 522.148 19.152 522.493 19.964C522.848 20.7667 523.025 21.7047 523.025 22.778C523.025 23.8513 522.853 24.794 522.507 25.606C522.162 26.418 521.677 27.048 521.051 27.496C520.435 27.944 519.717 28.168 518.895 28.168ZM518.895 26.894C519.455 26.894 519.941 26.726 520.351 26.39C520.762 26.0447 521.079 25.564 521.303 24.948C521.537 24.332 521.653 23.6087 521.653 22.778C521.653 21.9473 521.537 21.224 521.303 20.608C521.079 19.992 520.757 19.516 520.337 19.18C519.927 18.844 519.441 18.676 518.881 18.676C518.321 18.676 517.836 18.844 517.425 19.18C517.015 19.516 516.693 19.992 516.459 20.608C516.235 21.224 516.123 21.9473 516.123 22.778C516.123 23.5993 516.235 24.318 516.459 24.934C516.693 25.55 517.015 26.0307 517.425 26.376C517.845 26.7213 518.335 26.894 518.895 26.894Z" fill="#141522"/>
<rect x="68" y="18" width="354" height="8" rx="4" fill="#F5F5F7"/>
<rect x="68" y="18" width="80" height="8" rx="4" fill="#141522"/>
</svg>
