<svg width="36" height="36" viewBox="0 0 36 36" fill="none" xmlns="http://www.w3.org/2000/svg">
<rect width="36" height="36" rx="10" fill="#F5F5F7"/>
<path d="M14.5164 24V22.81L17.3724 19.758C17.9324 19.1607 18.3711 18.68 18.6884 18.316C19.0151 17.9427 19.2484 17.616 19.3884 17.336C19.5377 17.056 19.6124 16.762 19.6124 16.454C19.6124 15.95 19.4584 15.5627 19.1504 15.292C18.8424 15.012 18.4457 14.872 17.9604 14.872C17.4564 14.872 17.0224 15.0167 16.6584 15.306C16.2944 15.586 16.0424 15.9967 15.9024 16.538L14.4464 16.118C14.5584 15.5673 14.7824 15.0913 15.1184 14.69C15.4544 14.2793 15.8651 13.962 16.3504 13.738C16.8451 13.514 17.3771 13.402 17.9464 13.402C18.6091 13.402 19.1877 13.528 19.6824 13.78C20.1771 14.0227 20.5597 14.3633 20.8304 14.802C21.1104 15.2407 21.2504 15.7493 21.2504 16.328C21.2504 16.7107 21.1757 17.084 21.0264 17.448C20.8864 17.8027 20.6671 18.1807 20.3684 18.582C20.0697 18.974 19.6871 19.4173 19.2204 19.912L16.7004 22.6H21.4464V24H14.5164Z" fill="#141522"/>
</svg>
