<svg width="36" height="36" viewBox="0 0 36 36" fill="none" xmlns="http://www.w3.org/2000/svg">
<rect width="36" height="36" rx="10" fill="#F5F5F7"/>
<path d="M17.8227 24.168C17.2627 24.168 16.7354 24.0653 16.2407 23.86C15.7554 23.6547 15.3354 23.3653 14.9807 22.992C14.6354 22.6187 14.388 22.18 14.2387 21.676L15.6387 21.144C15.8254 21.6387 16.11 22.0213 16.4927 22.292C16.8754 22.5627 17.3187 22.698 17.8227 22.698C18.2334 22.698 18.588 22.6187 18.8867 22.46C19.1947 22.3013 19.4327 22.0773 19.6007 21.788C19.778 21.4987 19.8667 21.1487 19.8667 20.738C19.8667 20.3367 19.778 19.9913 19.6007 19.702C19.4327 19.4127 19.1947 19.1933 18.8867 19.044C18.588 18.8947 18.2334 18.82 17.8227 18.82C17.6547 18.82 17.482 18.834 17.3047 18.862C17.1367 18.89 16.9874 18.9273 16.8567 18.974L16.4927 18.204L19.2367 14.97H14.7987V13.57H21.0847V14.9L18.3967 18.12L18.3547 17.588C18.98 17.5973 19.5307 17.7373 20.0067 18.008C20.4827 18.2693 20.8514 18.6333 21.1127 19.1C21.3834 19.5573 21.5187 20.0893 21.5187 20.696C21.5187 21.3493 21.36 21.942 21.0427 22.474C20.7254 22.9967 20.2867 23.412 19.7267 23.72C19.176 24.0187 18.5414 24.168 17.8227 24.168Z" fill="#141522"/>
</svg>
